<svg xmlns="http://www.w3.org/2000/svg" width="256" height="256"><path fill-opacity=".204" d="M0 128.004v128.004l128.25-.254 128.25-.254.254-127.75L257.008 0H0v128.004m.485.496c0 70.4.119 99.053.265 63.672.146-35.38.146-92.98 0-128C.604 29.153.485 58.1.485 128.5" fill="#1976D2" fill-rule="evenodd"/><path fill-opacity=".202" d="M94.232 50.5C89.651 53.81 85 66.629 85 75.946c0 5.167 4.636 9.24 13.733 12.065 17.834 5.538 44.042 2.244 52.329-6.577 1.937-2.062 2.14-3.058 1.586-7.775-1.155-9.825-4.325-18.168-8.194-21.565-4.837-4.248-9.305-4.146-17.885.406-3.629 1.925-7.26 3.5-8.068 3.5-.809 0-3.797-1.431-6.64-3.18-6.274-3.861-14.076-4.887-17.629-2.32M73.643 83.839c-9.995 7.145-8.338 17.258 3.79 23.129 4.196 2.031 4.37 2.3 5.056 7.818 3.21 25.831 18.496 42.207 38.308 41.039 15.463-.911 27.636-12.946 32.656-32.285.851-3.278 1.547-7.355 1.547-9.059 0-3.902 1.295-5.478 7.313-8.901 6.051-3.442 8.968-7.845 8.272-12.486-.556-3.713-4.46-8.424-8.906-10.745-2.735-1.429-2.957-1.348-7.31 2.665-7.168 6.607-16.172 9.658-31.369 10.627-16.694 1.065-35.774-4.359-41.214-11.716-2.637-3.567-3.264-3.573-8.143-.086m108.621 59.227c-6.261 2.467-13.157 9.047-16.415 15.664-3.553 7.215-3.355 18.722.456 26.483 3.183 6.481 2.746 8.675-2.239 11.253-2.718 1.406-15.309 16.382-18 21.411-3.048 5.695 1.877 13.123 8.701 13.123 2.693 0 4.247-.795 6.761-3.461 5.516-5.848 15.471-19.566 15.494-21.351.012-.928.808-2.708 1.768-3.956 1.739-2.259 1.769-2.262 8.317-.646 5.381 1.328 7.554 1.418 11.983.498 11.825-2.458 20.905-10.598 24.478-21.946 4.277-13.583-3.068-29.799-16.468-36.356-6.52-3.19-17.733-3.514-24.836-.716M184 153.25c-12.853 6.865-14.835 24.743-3.791 34.197 13.011 11.137 32.724 3.293 34.48-13.72.783-7.586-2.748-15.414-8.74-19.379-6.066-4.015-15.596-4.491-21.949-1.098m-88.276 7.857c-3.637 3.117-9.243 5.879-23.5 11.58-10.298 4.118-19.732 8.422-20.964 9.565-4.599 4.266-7.995 18.382-9.745 40.498l-.652 8.25H141.752l-1.532-4.261c-2.464-6.851-1.206-10.227 8.438-22.657 4.729-6.095 8.879-11.096 9.22-11.114.342-.017 1.411-.631 2.376-1.363 1.666-1.264 1.653-1.561-.255-5.875-1.106-2.499-2.293-7.247-2.638-10.552l-.628-6.008-4.617-1.751c-2.539-.963-7.02-3.702-9.958-6.085-2.938-2.384-6.301-4.334-7.475-4.334-1.293 0-4.788 2.635-8.878 6.693l-6.745 6.693-6.933-6.693c-4.559-4.402-7.736-6.691-9.28-6.687-1.296.004-4.486 1.84-7.123 4.101m86.924 46.578c-.356.357-.648 1.345-.648 2.196 0 .851-3.383 5.951-7.517 11.333L166.966 231h29.996l-.46-4.25a736.24 736.24 0 01-1.057-10.969l-.598-6.719-3.673-.589c-2.021-.323-4.62-.779-5.776-1.012-1.155-.234-2.393-.133-2.75.224" fill="#1976D2" fill-rule="evenodd"/><path fill-opacity=".617" d="M93.546 52.094c-3.949 3.467-6.947 11.492-8.1 21.681-.672 5.94-.668 5.954 2.881 8.661 13.545 10.331 45.261 10.804 59.848.893 2.022-1.374 3.909-3.106 4.194-3.849.786-2.049-1.35-14.326-3.492-20.065-2.374-6.362-5.578-9.431-10.542-10.097-3.174-.426-5.244.211-11.639 3.579l-7.779 4.097-7.543-3.997c-9.357-4.958-13-5.142-17.828-.903M75.973 82.653c-11.227 7.507-11.682 15.526-1.258 22.155 7.144 4.543 8.285 5.85 8.285 9.482 0 4.47 2.582 14.088 5.493 20.463 3.249 7.115 11.365 15.488 17.805 18.37 7.751 3.467 18.309 3.283 25.947-.454 6.38-3.122 12.686-9.655 16.425-17.015 2.839-5.59 6.33-18.438 6.33-23.297 0-2.972.515-3.584 4.87-5.791 4.958-2.512 9.499-7.003 10.605-10.487 1.056-3.326-1.999-8.655-6.888-12.019l-4.613-3.174-3.237 3.42c-7.158 7.565-20.059 11.656-36.827 11.679-17.014.024-30.908-4.44-37.24-11.965-2.985-3.547-2.581-3.451-5.697-1.367m109.351 59.726c-13.574 4.441-21.645 15.371-21.653 29.326-.004 6.056.492 8.206 3.107 13.482 2.947 5.946 3.022 6.379 1.417 8.189-.932 1.05-2.925 2.669-4.429 3.596-1.503.928-6.161 6.061-10.35 11.407-6.213 7.93-7.616 10.371-7.616 13.25 0 6.604 7.555 11.334 12.71 7.956 3.612-2.366 16.505-18.686 17.135-21.689.301-1.432 1.567-3.884 2.815-5.449 2.176-2.729 2.432-2.796 6.27-1.646 5.563 1.667 14.041 1.496 19.586-.393 6.239-2.126 13.974-9.258 17.207-15.866 5.036-10.292 3.093-24.152-4.613-32.906-7.538-8.564-21.34-12.609-31.586-9.257m1.915 8.956C178.512 154.5 173 162.303 173 171.492c0 6.572 1.639 10.926 5.61 14.901 8.973 8.982 22.917 8.604 31.216-.847 4.201-4.785 5.179-7.417 5.152-13.861-.062-14.751-14.326-25.215-27.739-20.35m-91.151 9.915c-3.875 3.179-10.146 6.266-24.884 12.25l-19.704 8-2.815 5.628c-1.556 3.11-3.451 9.372-4.236 14-1.58 9.307-3.274 28.714-2.569 29.419.249.249 22.701.453 49.894.453 46.696 0 49.4-.097 48.712-1.75-1.568-3.768-1.714-11.088-.278-13.964 2.028-4.066 16.113-21.591 18.77-23.355l2.201-1.462-2.089-6.203c-1.15-3.412-2.09-8.013-2.09-10.224 0-3.947-.116-4.078-6.25-7.018-3.437-1.648-8.197-4.578-10.578-6.51-2.38-1.933-5.011-3.514-5.847-3.514-.836 0-4.631 3.004-8.434 6.676l-6.915 6.675-3.238-2.896c-1.781-1.593-3.913-3.588-4.738-4.434-2.773-2.843-7.259-6.021-8.5-6.021-.677 0-3.562 1.912-6.412 4.25m86.058 49.167c-.624 1.696-4.063 6.785-7.641 11.31-3.578 4.525-6.505 8.463-6.505 8.75 0 .288 6.3.523 14 .523h14l-.109-4.75c-.059-2.613-.397-7.433-.75-10.713l-.641-5.963-5.61-1.12-5.609-1.12-1.135 3.083" fill="#1976D2" fill-rule="evenodd"/><path fill-opacity=".968" d="M95.897 50.804c-2.237 1.117-4.189 3.291-5.714 6.365-2.387 4.81-5.522 19.783-4.63 22.11.817 2.128 8.524 6.668 14.447 8.51 4.046 1.259 9.068 1.711 19 1.709 11.555-.001 14.477-.338 20.283-2.342 9.166-3.163 12.721-6.241 12.702-10.995-.021-5.353-2.713-15.905-5.174-20.284-2.529-4.5-7.516-7.219-11.523-6.283-1.533.359-5.85 2.28-9.592 4.269l-6.805 3.617-6.695-3.608c-8.529-4.596-11.949-5.239-16.299-3.068M73.875 84.439c-1.974 1.341-4.342 4.024-5.261 5.962-1.482 3.124-1.511 3.911-.249 6.93 1.455 3.482 5.6 7.151 11.385 10.077 2.682 1.356 3.25 2.222 3.25 4.958 0 4.874 3.501 17.721 6.346 23.288 3.834 7.502 9.094 12.91 15.833 16.278 8.105 4.05 18.578 4.332 26.321.709 11.309-5.292 19.417-18.013 22.307-35.001 1.574-9.251 1.645-9.402 4.996-10.613 1.87-.677 5.154-2.984 7.298-5.128 3.116-3.116 3.899-4.636 3.899-7.57 0-3.048-.767-4.407-4.518-8-2.484-2.381-5.096-4.329-5.803-4.329-.708 0-2.776 1.536-4.596 3.414-14.49 14.95-57.685 14.917-72.658-.056C80.578 83.511 78.706 82 78.265 82c-.44 0-2.416 1.098-4.39 2.439m114.348 57.651c-5.997 1.143-13.863 5.662-17.16 9.859-5.633 7.172-6.555 9.919-6.559 19.551-.004 8.043.301 9.55 2.866 14.178l2.869 5.177-2.145 3.014c-1.18 1.657-3.049 3.299-4.152 3.649-1.104.351-5.592 5.168-9.974 10.706-6.419 8.112-7.968 10.73-7.968 13.468 0 6.076 6.38 10.018 12.446 7.69 2.415-.927 16.584-19.29 17.191-22.28.291-1.431 1.504-3.807 2.696-5.28l2.167-2.679 5.5 1.488c14.087 3.811 28.118-2.524 35.232-15.909 3.295-6.2 3.233-19.261-.124-26.08-5.996-12.181-19.68-19.068-32.885-16.552m-4.343 10.704c-15.67 8.186-15.363 30.257.533 38.407 5.766 2.956 15.799 2.248 21.487-1.516 13.904-9.201 12.717-29.714-2.149-37.122-6.969-3.473-12.913-3.404-19.871.231m-88.484 9.351c-3.699 2.995-10.142 6.152-23.407 11.467-10.067 4.034-19.373 8.34-20.68 9.567-4.102 3.854-7.418 17.884-8.88 37.571l-.687 9.25H140.839l-1.504-3.829c-1.199-3.052-1.281-4.656-.407-7.904 1.582-5.875 15.847-24.031 21.798-27.745.125-.078-.611-2.364-1.635-5.082-1.024-2.717-2.186-7.339-2.581-10.271-.696-5.152-.871-5.395-5.256-7.274-2.495-1.07-6.672-3.734-9.284-5.92-2.611-2.186-5.799-3.975-7.084-3.975-1.544 0-4.631 2.278-9.111 6.723L119 171.446l-6.775-6.723c-8.131-8.069-9.742-8.315-16.829-2.578m87.228 48.215c-.309 1.234-3.534 6.045-7.167 10.692l-6.604 8.448 13.21.28c7.266.154 13.37.121 13.565-.074.406-.407-1.333-19.774-1.812-20.167-.174-.142-2.636-.521-5.472-.841-4.742-.535-5.202-.401-5.72 1.662" fill="#1976D2" fill-rule="evenodd"/></svg>